<svg xmlns="http://www.w3.org/2000/svg" width="97.971" height="84.947" viewBox="0 0 97.971 84.947">
  <g id="Group_4614" data-name="Group 4614" transform="translate(-296.158 -3147.503)">
    <g id="Group_4608" data-name="Group 4608" transform="translate(296.668 3222.482)">
      <path id="Path_55563" data-name="Path 55563" d="M386.461,3600.468H303.826c-4.813,0-6.871-6.545-7.09-7.293a1.7,1.7,0,0,1,1.623-2.175h38.292a1.691,1.691,0,0,1,1.425.78,1.2,1.2,0,0,0,.713.572h13.917a1.2,1.2,0,0,0,.714-.573,1.69,1.69,0,0,1,1.424-.78h37.085a1.7,1.7,0,0,1,1.353.686,1.681,1.681,0,0,1,.27,1.484C393.332,3593.918,391.274,3600.468,386.461,3600.468Zm-85.573-6.086c.734,1.353,1.785,2.705,2.939,2.705h82.635c1.163,0,2.215-1.353,2.945-2.705H355.65a3.769,3.769,0,0,1-2.944,1.353H338.788a3.77,3.77,0,0,1-2.944-1.353Z" transform="translate(-296.668 -3591)" fill="#fba51a" stroke="#fff" stroke-width="1"/>
    </g>
    <g id="Group_4609" data-name="Group 4609" transform="translate(305.516 3163.648)">
      <path id="Path_55564" data-name="Path 55564" d="M419.659,3299.805H357.443A8.527,8.527,0,0,1,349,3291v-39.223a8.521,8.521,0,0,1,8.443-8.773h5.738a1.691,1.691,0,1,1,0,3.381h-5.738a5.12,5.12,0,0,0-5.062,5.392V3291a5.126,5.126,0,0,0,5.062,5.428h62.215a5.747,5.747,0,0,0,5.758-5.428v-39.223a5.673,5.673,0,0,0-5.758-5.392H413.9a1.691,1.691,0,1,1,0-3.381h5.758a9.1,9.1,0,0,1,9.139,8.773V3291A9.1,9.1,0,0,1,419.659,3299.805Z" transform="translate(-349 -3243)" fill="#fba51a" stroke="#fff" stroke-width="1"/>
    </g>
    <g id="Group_4610" data-name="Group 4610" transform="translate(312.278 3170.41)">
      <path id="Path_55565" data-name="Path 55565" d="M453.562,3326.28H390.671a1.657,1.657,0,0,1-1.671-1.671v-39.9a1.69,1.69,0,0,1,1.671-1.71h5.748a1.69,1.69,0,1,1,0,3.381h-4.038V3322.9h59.51v-36.518h-4.754a1.69,1.69,0,1,1,0-3.381h6.424a1.724,1.724,0,0,1,1.71,1.71v39.9A1.691,1.691,0,0,1,453.562,3326.28Z" transform="translate(-389 -3283)" fill="#fba51a" stroke="#fff" stroke-width="1"/>
    </g>
    <g id="Group_4613" data-name="Group 4613" transform="translate(323.774 3147.503)">
      <g id="Group_4611" data-name="Group 4611" transform="translate(0 0)">
        <path id="Path_55566" data-name="Path 55566" d="M478.282,3199.851a1.648,1.648,0,0,1-.707-.159c-.84-.394-20.576-9.8-20.576-24.687v-18.178a1.675,1.675,0,0,1,1.937-1.67,21.689,21.689,0,0,0,9.945-1.293,18.222,18.222,0,0,0,7.748-5.647,1.691,1.691,0,0,1,1.349-.715,1.726,1.726,0,0,1,1.375.664,20.3,20.3,0,0,0,8.018,5.7,22.905,22.905,0,0,0,10.281,1.29,1.709,1.709,0,0,1,1.953,1.673v18.178c0,14.883-19.755,24.293-20.6,24.687A1.736,1.736,0,0,1,478.282,3199.851Zm-17.9-41.2v16.354c0,11.284,14.5,19.485,17.921,21.264,3.425-1.779,17.921-9.98,17.921-21.264v-16.356a26.154,26.154,0,0,1-10.065-1.631,24.1,24.1,0,0,1-8.109-5.275,22.371,22.371,0,0,1-7.935,5.275A25.431,25.431,0,0,1,460.381,3158.652Z" transform="translate(-457 -3147.503)" fill="#1f419b"/>
      </g>
      <g id="Group_4612" data-name="Group 4612" transform="translate(10.52 18.706)">
        <path id="Path_55567" data-name="Path 55567" d="M527.754,3274.3a1.691,1.691,0,0,1-1.15-.451l-6.839-6.344a1.691,1.691,0,0,1,2.3-2.479l5.6,5.192,10.651-11.522a1.691,1.691,0,0,1,2.483,2.3L529,3273.754a1.69,1.69,0,0,1-1.176.541Z" transform="translate(-519.224 -3258.149)" fill="#1f419b"/>
      </g>
    </g>
  </g>
</svg>
