<svg xmlns="http://www.w3.org/2000/svg" width="96" height="90.245" viewBox="0 0 96 90.245">
  <g id="Group_4606" data-name="Group 4606" transform="translate(-279.472 -778.8)">
    <g id="Group_4591" data-name="Group 4591" transform="translate(279.472 798.568)">
      <g id="Group_4588" data-name="Group 4588" transform="translate(85.679 42.178)">
        <rect id="Rectangle_14698" data-name="Rectangle 14698" width="3.176" height="13.922" fill="#fba51a"/>
      </g>
      <g id="Group_4589" data-name="Group 4589" transform="translate(7.024 0)">
        <path id="Path_55548" data-name="Path 55548" d="M318.03,934.474h-3.176V879.962a1.588,1.588,0,0,1,1.588-1.588h9.55v3.176H318.03Z" transform="translate(-314.854 -878.374)" fill="#fba51a"/>
      </g>
      <g id="Group_4590" data-name="Group 4590" transform="translate(0 54.512)">
        <path id="Path_55549" data-name="Path 55549" d="M366.725,1168.927H288.1c-4.757,0-8.628-3.387-8.628-7.551v-6.826a1.588,1.588,0,0,1,1.588-1.588h36.2a1.588,1.588,0,0,1,1.588,1.588v3.8h17.124v-3.8a1.588,1.588,0,0,1,1.588-1.588h36.2a1.588,1.588,0,0,1,1.588,1.588v6.826C375.353,1165.54,371.483,1168.927,366.725,1168.927Zm-84.077-12.789v5.238c0,2.412,2.445,4.375,5.451,4.375h78.626c3.006,0,5.451-1.963,5.451-4.375v-5.238H339.151v3.8a1.588,1.588,0,0,1-1.588,1.588h-20.3a1.588,1.588,0,0,1-1.588-1.588v-3.8Z" transform="translate(-279.472 -1152.962)" fill="#fba51a"/>
      </g>
    </g>
    <g id="Group_4605" data-name="Group 4605" transform="translate(300.794 778.8)">
      <g id="Group_4601" data-name="Group 4601" transform="translate(2.663 0)">
        <g id="Group_4597" data-name="Group 4597">
          <g id="Group_4592" data-name="Group 4592" transform="translate(18.916 12.035)">
            <path id="Path_55550" data-name="Path 55550" d="M539.245,873.708H501.036v-3.176h38.209a2.066,2.066,0,0,0,2.038-1.711l4.18-23.793a2.069,2.069,0,0,0-2.038-2.427H495.571v-3.176h47.854a5.245,5.245,0,0,1,5.166,6.153l-4.18,23.793A5.238,5.238,0,0,1,539.245,873.708Z" transform="translate(-495.571 -839.425)" fill="#1f419b"/>
          </g>
          <g id="Group_4593" data-name="Group 4593">
            <path id="Path_55551" data-name="Path 55551" d="M420.42,808.535l-4.186-23.827a3.3,3.3,0,0,0-3.254-2.732H400.286V778.8h12.695a6.469,6.469,0,0,1,6.382,5.359l4.186,23.826Z" transform="translate(-400.286 -778.8)" fill="#1f419b"/>
          </g>
          <g id="Group_4594" data-name="Group 4594" transform="translate(21.292 35.775)">
            <path id="Path_55552" data-name="Path 55552" d="M552.2,979.039H516.4a6.469,6.469,0,0,1-6.382-5.358l-2.482-14.123,3.128-.55,2.482,14.124a3.3,3.3,0,0,0,3.254,2.732h35.8Z" transform="translate(-507.538 -959.007)" fill="#1f419b"/>
          </g>
          <g id="Group_4595" data-name="Group 4595" transform="translate(30.664 57.214)">
            <path id="Path_55553" data-name="Path 55553" d="M559.953,1072.2a5.209,5.209,0,0,1-5.2-5.2h3.176a2.027,2.027,0,0,0,4.054,0h3.176A5.209,5.209,0,0,1,559.953,1072.2Z" transform="translate(-554.749 -1066.999)" fill="#1f419b"/>
          </g>
          <g id="Group_4596" data-name="Group 4596" transform="translate(49.2 57.214)">
            <path id="Path_55554" data-name="Path 55554" d="M653.319,1072.2a5.209,5.209,0,0,1-5.2-5.2h3.176a2.027,2.027,0,1,0,4.054,0h3.176A5.209,5.209,0,0,1,653.319,1072.2Z" transform="translate(-648.116 -1066.999)" fill="#1f419b"/>
          </g>
        </g>
        <g id="Group_4598" data-name="Group 4598" transform="translate(43.142 21.588)">
          <rect id="Rectangle_14699" data-name="Rectangle 14699" width="3.176" height="15.178" fill="#1f419b"/>
        </g>
        <g id="Group_4599" data-name="Group 4599" transform="translate(52.872 21.588)">
          <rect id="Rectangle_14700" data-name="Rectangle 14700" width="3.176" height="15.178" fill="#1f419b"/>
        </g>
        <g id="Group_4600" data-name="Group 4600" transform="translate(33.297 21.588)">
          <rect id="Rectangle_14701" data-name="Rectangle 14701" width="3.176" height="15.178" fill="#1f419b"/>
        </g>
      </g>
      <g id="Group_4602" data-name="Group 4602" transform="translate(0 18.629)">
        <rect id="Rectangle_14702" data-name="Rectangle 14702" width="11.446" height="3.176" fill="#1f419b"/>
      </g>
      <g id="Group_4603" data-name="Group 4603" transform="translate(11.749 31.193)">
        <rect id="Rectangle_14703" data-name="Rectangle 14703" width="15.983" height="3.176" fill="#1f419b"/>
      </g>
      <g id="Group_4604" data-name="Group 4604" transform="translate(7.506 47.584)">
        <rect id="Rectangle_14704" data-name="Rectangle 14704" width="14.073" height="3.176" fill="#1f419b"/>
      </g>
    </g>
  </g>
</svg>
