<svg xmlns="http://www.w3.org/2000/svg" width="104.766" height="100.107" viewBox="0 0 104.766 100.107">
  <g id="ic" transform="translate(-537.75 -76.188)">
    <path id="Path_55539" data-name="Path 55539" d="M639.991,138.519V119.195H633v19.325" transform="translate(-58.722 -21.146)" fill="none" stroke="#1f419b" stroke-miterlimit="10" stroke-width="2.5"/>
    <path id="Path_55540" data-name="Path 55540" d="M664.991,147.388v-14H658v14" transform="translate(-71.463 -30.014)" fill="none" stroke="#1f419b" stroke-miterlimit="10" stroke-width="2.5"/>
    <path id="Path_55541" data-name="Path 55541" d="M612.491,129.176V105H605.5v24.176" transform="translate(-43.344 -11.802)" fill="none" stroke="#1f419b" stroke-miterlimit="10" stroke-width="2.5"/>
    <g id="Group_4583" data-name="Group 4583" transform="translate(612.503 125.509)">
      <path id="Path_55542" data-name="Path 55542" d="M729.39,226.321a14.381,14.381,0,1,1,15.981,0" transform="translate(-723 -200)" fill="none" stroke="#ffb01f" stroke-linejoin="round" stroke-width="2.5"/>
      <ellipse id="Ellipse_704" data-name="Ellipse 704" cx="6" cy="6.5" rx="6" ry="6.5" transform="translate(8.497 7.678)" fill="none" stroke="#ffb01f" stroke-linejoin="round" stroke-width="2.5"/>
    </g>
    <g id="Group_4586" data-name="Group 4586" transform="translate(542.196 76.188)">
      <g id="Group_4584" data-name="Group 4584" transform="translate(20.666 0)">
        <line id="Line_3010" data-name="Line 3010" y2="6" transform="translate(0.138 0)" fill="none" stroke="#ffb01f" stroke-linejoin="round" stroke-width="2.5"/>
        <line id="Line_3011" data-name="Line 3011" y2="6" transform="translate(32.138 0)" fill="none" stroke="#ffb01f" stroke-linejoin="round" stroke-width="2.5"/>
      </g>
      <g id="Group_4585" data-name="Group 4585" transform="translate(0 2.983)">
        <path id="Path_55543" data-name="Path 55543" d="M616.919,84c11.185,0,20.773,8.988,20.773,21.572,0,21.572-33.2,45.54-36.752,45.54-2.17,0-15.357-8.919-25.318-20.771" transform="translate(-564.188 -84)" fill="none" stroke="#ffb01f" stroke-linejoin="round" stroke-width="2.5"/>
        <path id="Path_55544" data-name="Path 55544" d="M567.773,84C556.587,84,547,93.587,547,105.572c0,5.042,1.827,10.213,4.652,15.18" transform="translate(-547 -84)" fill="none" stroke="#ffb01f" stroke-linejoin="round" stroke-width="2.5"/>
      </g>
      <path id="Path_55545" data-name="Path 55545" d="M686.937,252v4.794a23.969,23.969,0,0,1-23.969,23.969h0A23.969,23.969,0,0,1,639,256.794V252" transform="translate(-602.248 -181.905)" fill="none" stroke="#ffb01f" stroke-linejoin="round" stroke-width="2.5"/>
    </g>
    <line id="Line_3009" data-name="Line 3009" x1="59" transform="translate(539 120.188)" fill="none" stroke="#1f419b" stroke-linecap="round" stroke-linejoin="round" stroke-width="2.5"/>
  </g>
</svg>
