<svg xmlns="http://www.w3.org/2000/svg" width="30" height="30" viewBox="0 0 30 30">
  <g id="Group_27290" data-name="Group 27290" transform="translate(-842 -1122)">
    <circle id="Ellipse_712" data-name="Ellipse 712" cx="15" cy="15" r="15" transform="translate(842 1122)" fill="#2aa3ef"/>
    <path id="Path_55615" data-name="Path 55615" d="M1475.905,71.5a6.442,6.442,0,0,1-.981,1.142,5.82,5.82,0,0,1-.526.432.092.092,0,0,0-.046.094,5.97,5.97,0,0,1-.005.848,8.86,8.86,0,0,1-.219,1.483,9.33,9.33,0,0,1-1.408,3.179,9.072,9.072,0,0,1-.87,1.072,8.369,8.369,0,0,1-2.348,1.742,8.462,8.462,0,0,1-2.323.763,9.071,9.071,0,0,1-1.185.134l-.239.013c-.214,0-.428,0-.642-.005a8.827,8.827,0,0,1-4.353-1.346c-.02-.013-.039-.028-.059-.043h0a.892.892,0,0,1,.179.009,6.332,6.332,0,0,0,2.373-.247,6.241,6.241,0,0,0,2-1.028c.009-.007.017-.015.025-.021s0,0,0-.013c-.084-.016-.171-.011-.255-.02a3.053,3.053,0,0,1-1.313-.453,3.09,3.09,0,0,1-1.3-1.606.222.222,0,0,1-.023-.083l0,0a4.754,4.754,0,0,0,.631.045,3.209,3.209,0,0,0,.754-.106,3.14,3.14,0,0,1-2.5-3.105,3.32,3.32,0,0,0,.678.278,2.971,2.971,0,0,0,.725.112c-.08-.061-.15-.114-.218-.168a3.136,3.136,0,0,1-.77-3.938c.035-.066.038-.066.083-.011a8.894,8.894,0,0,0,4.8,2.986,8.151,8.151,0,0,0,1.19.2c.114.009.226.016.34.027.048,0,.059-.007.049-.059a3.083,3.083,0,0,1,.484-2.418,3,3,0,0,1,2.085-1.314,3.05,3.05,0,0,1,2.715.89.115.115,0,0,0,.12.043,6.285,6.285,0,0,0,1.849-.707c.015-.009.032-.015.048-.023l.01.009a2.6,2.6,0,0,1-.3.659,3.1,3.1,0,0,1-.967.989.247.247,0,0,0-.051.041,1.608,1.608,0,0,0,.321-.04,6.289,6.289,0,0,0,1.369-.412A.072.072,0,0,1,1475.905,71.5Z" transform="translate(-611.7 1060.979)" fill="#fff"/>
  </g>
</svg>
