<svg xmlns="http://www.w3.org/2000/svg" width="30" height="30" viewBox="0 0 30 30">
  <g id="Group_27291" data-name="Group 27291" transform="translate(-842 -1047)">
    <circle id="Ellipse_713" data-name="Ellipse 713" cx="15" cy="15" r="15" transform="translate(842 1047)" fill="#003f7f"/>
    <path id="Path_55614" data-name="Path 55614" d="M0,7.807V5.276H2.148c.058,0,.048,0,.048-.048v-1.8c0-.1,0-.192,0-.289a4.111,4.111,0,0,1,.063-.557A3.386,3.386,0,0,1,2.589,1.6,2.735,2.735,0,0,1,3.914.355a3.552,3.552,0,0,1,1.243-.3C5.3.05,5.439.05,5.58.051c.243,0,.485.01.728.018.131,0,.262.01.393.019.191.013.381.03.572.045.048,0,.094.01.14.016V2.414H6.146c-.1,0-.208,0-.314.01a1.485,1.485,0,0,0-.387.074.826.826,0,0,0-.563.567,1.85,1.85,0,0,0-.071.526c0,.545,0,1.09,0,1.633,0,.051-.009.051.051.051H7.3c.022,0,.025.007.022.03-.015.11-.03.22-.043.331s-.028.22-.042.331l-.049.375c-.016.125-.031.25-.048.375s-.033.256-.051.384c-.013.109-.027.216-.042.325s-.03.223-.043.336c-.006.043,0,.043-.046.043H4.863c-.06,0-.054-.006-.054.054v6.416c0,.045,0,.045-.045.045H2.239c-.045,0-.045,0-.045-.045V7.851c0-.045,0-.045-.045-.045H.034A.263.263,0,0,0,0,7.807Z" transform="translate(853 1054.95)" fill="#fff"/>
  </g>
</svg>
