<svg xmlns="http://www.w3.org/2000/svg" width="16.384" height="25.714" viewBox="0 0 16.384 25.714">
  <path id="Path_1066" data-name="Path 1066" d="M725.662,1043.8c-1.531,2.82-3.058,5.345-3.849,6.622-.789-1.277-2.318-3.8-3.849-6.622-2.2-4.025-4.375-8.777-4.341-10.9a8.191,8.191,0,1,1,16.383,0C730.037,1035.021,727.866,1039.773,725.662,1043.8Zm-3.848-16.163a5.267,5.267,0,1,0,5.265,5.266,5.267,5.267,0,0,0-5.265-5.266Zm0,9.008a3.747,3.747,0,0,1-3.746-3.741h0a3.744,3.744,0,1,1,3.746,3.741Z" transform="translate(-713.623 -1024.708)" fill="#1f419b"/>
</svg>
