<svg xmlns="http://www.w3.org/2000/svg" width="30" height="30" viewBox="0 0 30 30">
  <g id="Group_27292" data-name="Group 27292" transform="translate(-842 -1193)">
    <circle id="Ellipse_714" data-name="Ellipse 714" cx="15" cy="15" r="15" transform="translate(842 1193)" fill="#4caf50"/>
    <path id="Path_55616" data-name="Path 55616" d="M-433.071,1028.614v-1c.038-.012.028-.046.033-.073.033-.184.056-.37.1-.551a5.941,5.941,0,0,1,2.409-3.46,8.181,8.181,0,0,1,3.983-1.5,8.844,8.844,0,0,1,4.441.6,6.818,6.818,0,0,1,3.377,2.791,5,5,0,0,1,.3,4.855,7.1,7.1,0,0,1-1.489,2.04,21.685,21.685,0,0,1-3.235,2.611,18.535,18.535,0,0,1-2.279,1.388,1.131,1.131,0,0,1-.463.137c-.192.006-.289-.078-.29-.27a2.258,2.258,0,0,1,.037-.337,5.142,5.142,0,0,0,.108-1.025.488.488,0,0,0-.288-.444,2.054,2.054,0,0,0-.607-.173,8.009,8.009,0,0,1-3.99-1.746,5.744,5.744,0,0,1-2.074-3.439A1.391,1.391,0,0,0-433.071,1028.614Zm7.538-.68c.045.059.081.1.115.152l1.368,1.869a.406.406,0,0,0,.485.183.414.414,0,0,0,.269-.431q0-1.453,0-2.907a.41.41,0,0,0-.391-.46c-.243,0-.4.177-.4.461q0,.812,0,1.623v.149a.262.262,0,0,1-.112-.115q-.678-.92-1.355-1.842c-.18-.245-.322-.317-.508-.257-.207.066-.28.2-.28.522q0,1.306,0,2.612c0,.108,0,.217.007.324a.379.379,0,0,0,.338.336.385.385,0,0,0,.422-.271.852.852,0,0,0,.02-.219c0-.516,0-1.033,0-1.549A.332.332,0,0,1-425.533,1027.933Zm3.915,2.223h.753a.394.394,0,0,0,.393-.4.4.4,0,0,0-.437-.4q-.472-.006-.945,0c-.088,0-.123-.022-.118-.116.007-.157.008-.315,0-.472-.006-.109.038-.13.137-.128.3.006.6,0,.9,0a.564.564,0,0,0,.19-.019.394.394,0,0,0,.269-.425.388.388,0,0,0-.39-.352c-.33-.006-.659-.005-.989,0-.091,0-.12-.026-.116-.116a4.665,4.665,0,0,0,0-.472c-.006-.109.036-.13.135-.128.315.006.63,0,.945,0a.4.4,0,0,0,.421-.4.4.4,0,0,0-.422-.4q-.724,0-1.447,0a.393.393,0,0,0-.422.425q0,1.484,0,2.967a.39.39,0,0,0,.422.424C-422.1,1030.159-421.86,1030.157-421.618,1030.157Zm-8.752-1.9v.546c0,.3,0,.61,0,.915a.389.389,0,0,0,.384.434q.767.01,1.534,0a.38.38,0,0,0,.375-.379.4.4,0,0,0-.435-.415c-.31,0-.62-.006-.93,0-.113,0-.141-.034-.139-.142.005-.511,0-1.023,0-1.534,0-.325,0-.649,0-.974a.381.381,0,0,0-.367-.372.391.391,0,0,0-.411.342,1.237,1.237,0,0,0-.01.176Q-430.371,1027.559-430.371,1028.259Zm3.454,0h0c0-.507,0-1.014,0-1.521a.388.388,0,0,0-.333-.392.4.4,0,0,0-.431.262.714.714,0,0,0-.023.234q0,1.41,0,2.821a1.224,1.224,0,0,0,.008.162.384.384,0,0,0,.372.335.39.39,0,0,0,.408-.424C-426.914,1029.24-426.917,1028.747-426.917,1028.255Z" transform="translate(1282.071 179.041)" fill="#fff"/>
  </g>
</svg>
