<svg xmlns="http://www.w3.org/2000/svg" width="34.286" height="31.184" viewBox="0 0 34.286 31.184">
  <g id="Group_16" data-name="Group 16" transform="translate(0)">
    <g id="Group_15" data-name="Group 15" transform="translate(0 0)">
      <g id="Group_14" data-name="Group 14">
        <path id="Path_11" data-name="Path 11" d="M570.634,370.337V367.17a1.757,1.757,0,0,0-1.755-1.755h-8.558a1.757,1.757,0,0,0-1.755,1.755v3.167a1.756,1.756,0,0,0,1.755,1.754h8.558A1.756,1.756,0,0,0,570.634,370.337Zm-10.984,0V367.17a.672.672,0,0,1,.671-.671h8.558a.672.672,0,0,1,.671.671v3.167a.671.671,0,0,1-.671.671h-8.558A.672.672,0,0,1,559.65,370.337Z" transform="translate(-553.182 -359.843)" fill="#fff"/>
        <path id="Path_12" data-name="Path 12" d="M567.878,387.654h-3.033a.542.542,0,0,0,0,1.084h3.033a.542.542,0,1,0,0-1.084Z" transform="translate(-555.114 -367.331)" fill="#fff"/>
        <path id="Path_13" data-name="Path 13" d="M567.878,391.159h-3.033a.542.542,0,0,0,0,1.084h3.033a.542.542,0,1,0,0-1.084Z" transform="translate(-555.114 -368.511)" fill="#fff"/>
        <path id="Path_14" data-name="Path 14" d="M582.981,363.547h-9.047a1.75,1.75,0,0,0-.671.133v-.552a.542.542,0,1,0-1.084,0v12.887a1.751,1.751,0,0,0-.3.147.707.707,0,0,1-.365.081,5.1,5.1,0,0,1-2.73-1.358,1.8,1.8,0,0,0-1.872-.261,3.088,3.088,0,0,0-1.138-.718,8.9,8.9,0,1,0-7.806,0,3.1,3.1,0,0,0-.792.42,1.808,1.808,0,0,0-1.124-.017c-3.506,1.09-5.6,3.165-5.6,5.551a1.805,1.805,0,0,0,3.611,0c0-.432.669-1.084,1.837-1.632v8.214a1.756,1.756,0,0,0,1.755,1.754h.876a1.756,1.756,0,0,0,1.754-1.754v-2.086h3.168v2.086a1.756,1.756,0,0,0,1.754,1.754h.876a1.757,1.757,0,0,0,1.755-1.754v-7.8a7.1,7.1,0,0,0,3.686,1.207,4.629,4.629,0,0,0,.657-.047v7.849a.542.542,0,0,0,1.084,0V379.5a4.1,4.1,0,0,0,.486-.252,1.806,1.806,0,0,0-.486-3.292v-4.435a1.738,1.738,0,0,0,.671.134h1.819a.542.542,0,0,0,0-1.085h-1.819a.671.671,0,0,1-.671-.671v-4.6a.671.671,0,0,1,.671-.671h9.047a.672.672,0,0,1,.671.671v4.6a.671.671,0,0,1-.671.671h-5.458a.542.542,0,0,0,0,1.085h5.458a1.757,1.757,0,0,0,1.754-1.755v-4.6A1.756,1.756,0,0,0,582.981,363.547Zm-28.927,2.365a7.814,7.814,0,1,1,7.814,7.814A7.823,7.823,0,0,1,554.053,365.912Zm2.745,10.812,0,0c-.088.027-.174.056-.259.084l-.023.008c-2.188.738-3.535,1.891-3.535,3.044a.722.722,0,1,1-1.443,0c0-1.886,1.809-3.574,4.837-4.516a.716.716,0,0,1,.214-.033.724.724,0,0,1,.363.1.108.108,0,0,0,.018.013.723.723,0,0,1,.208.2v0c.011.016.022.033.032.05l.011.02c.007.013.014.027.02.041l.01.022a.648.648,0,0,1,.025.066.686.686,0,0,1,.033.214.633.633,0,0,1,0,.08.725.725,0,0,1-.368.553A.734.734,0,0,1,556.8,376.724Zm2.4,9.719a.672.672,0,0,1-.671.671h-.876a.671.671,0,0,1-.671-.671v-2.085H559.2Zm7.553,0a.672.672,0,0,1-.671.671h-.876a.672.672,0,0,1-.671-.671v-2.085h2.218Zm0-3.17h-9.772V377.8l.139-.044a1.792,1.792,0,0,0,.757-.464,1.8,1.8,0,0,0,.432-1.8v0c-.013-.042-.029-.085-.044-.126-.009-.024-.02-.046-.031-.07s-.015-.034-.023-.051-.031-.062-.048-.092l-.011-.02c-.02-.036-.042-.07-.064-.1a2.025,2.025,0,0,1,.925-.223h5.714a2.011,2.011,0,0,1,1.366.53l0,0c-.023.036-.042.073-.062.111l-.013.025c-.019.037-.036.076-.052.114l-.007.017c-.015.036-.028.073-.04.11l-.006.019c-.013.04-.023.08-.033.121l-.006.026c-.009.041-.017.083-.023.125v.011c-.006.04-.01.08-.013.121v.023c0,.042,0,.084,0,.127v.026c0,.044,0,.088.007.132a1.8,1.8,0,0,0,.649,1.22c.081.066.161.131.241.194l.027.022v5.387Zm6.677-5.942a.722.722,0,0,1-.243.991,3.154,3.154,0,0,1-1.663.448,6.859,6.859,0,0,1-4-1.658l-.093-.072c-.086-.067-.172-.135-.258-.206a.718.718,0,0,1-.259-.488c0-.024,0-.048,0-.072h0a.715.715,0,0,1,.165-.455c.012-.015.025-.028.038-.042l.042-.04,0,0a.72.72,0,0,1,.471-.176.711.711,0,0,1,.458.165,5.931,5.931,0,0,0,3.419,1.605,1.76,1.76,0,0,0,.927-.238.732.732,0,0,1,.264-.1h.02a.546.546,0,0,0,.1-.009A.721.721,0,0,1,573.429,377.331Z" transform="translate(-550.449 -357.014)" fill="#fff"/>
      </g>
    </g>
  </g>
</svg>
