<svg xmlns="http://www.w3.org/2000/svg" width="32.303" height="32.303" viewBox="0 0 32.303 32.303">
  <g id="Group_22" data-name="Group 22" transform="translate(0)">
    <g id="Group_21" data-name="Group 21" transform="translate(0 0)">
      <g id="Group_20" data-name="Group 20">
        <path id="Path_19" data-name="Path 19" d="M175.056,377.692a3.893,3.893,0,1,0,2.851,6.544.51.51,0,1,0-.747-.695,2.845,2.845,0,0,1-2.1.917,2.871,2.871,0,1,1,2.784-2.162.51.51,0,1,0,.989.252,3.894,3.894,0,0,0-3.773-4.856Z" transform="translate(-158.904 -365.433)" fill="#fff"/>
        <path id="Path_20" data-name="Path 20" d="M183.85,374.228c0-1.872-1.5-3.608-4.245-4.932,1-2.877.837-5.165-.486-6.489a4.256,4.256,0,0,0-3.135-1.133,10.34,10.34,0,0,0-3.353.649c-1.325-2.745-3.061-4.247-4.933-4.247s-3.608,1.5-4.933,4.247a10.337,10.337,0,0,0-3.352-.649,4.256,4.256,0,0,0-3.135,1.132c-1.324,1.324-1.49,3.612-.487,6.489-2.743,1.325-4.244,3.06-4.244,4.932s1.5,3.607,4.244,4.932c-1,2.877-.837,5.165.487,6.489a4.255,4.255,0,0,0,3.135,1.132h0a10.353,10.353,0,0,0,3.352-.649c1.325,2.745,3.061,4.246,4.933,4.246s3.608-1.5,4.933-4.246a10.343,10.343,0,0,0,3.353.649,4.258,4.258,0,0,0,3.135-1.132c1.324-1.324,1.489-3.612.486-6.489C182.349,377.835,183.85,376.1,183.85,374.228Zm-7.866-11.534a3.281,3.281,0,0,1,2.413.834c1.057,1.057,1.077,3,.268,5.349a23.637,23.637,0,0,0-4.348-1.269,23.605,23.605,0,0,0-1.274-4.359A9.29,9.29,0,0,1,175.984,362.694Zm-1.066,10.316q.471.6.9,1.209-.426.606-.9,1.215.019-.6.019-1.206T174.918,373.01Zm1.515,2.118a22.113,22.113,0,0,1,1.872,3.488,22.546,22.546,0,0,1-3.792,1.141c.133-.835.236-1.7.307-2.578Q175.684,376.163,176.434,375.128Zm-.007-1.81c-.5-.684-1.033-1.367-1.606-2.04-.071-.881-.174-1.743-.307-2.578a22.634,22.634,0,0,1,3.785,1.138A22.579,22.579,0,0,1,176.426,373.318Zm-4.33,5.308c-.607.608-1.228,1.186-1.855,1.729-.829.061-1.679.092-2.543.092s-1.714-.032-2.543-.092c-.627-.544-1.247-1.121-1.855-1.729s-1.187-1.232-1.73-1.86c-.06-.827-.092-1.675-.092-2.538s.032-1.71.092-2.538c.543-.627,1.12-1.25,1.73-1.859s1.228-1.185,1.855-1.729c.829-.061,1.679-.092,2.543-.092s1.714.032,2.543.092c.627.544,1.247,1.121,1.855,1.729s1.184,1.227,1.729,1.855c.06.829.092,1.679.092,2.543s-.032,1.71-.092,2.538Q173.012,377.708,172.1,378.626Zm1.56-.145q-.095.758-.221,1.484-.726.127-1.485.221.438-.41.867-.839T173.657,378.481Zm-4.741,2.967q-.608.475-1.217.906-.608-.429-1.217-.906.6.02,1.217.019T168.916,381.448Zm-5.469-1.262q-.758-.095-1.485-.221-.126-.726-.221-1.484.41.437.839.866T163.446,380.186Zm-1.706-10.211q.095-.758.221-1.484.726-.127,1.485-.221-.437.41-.867.839T161.74,369.975Zm4.741-2.967q.608-.475,1.217-.907.608.43,1.218.907-.606-.02-1.218-.02T166.481,367.008Zm5.469,1.262q.758.095,1.485.221.127.725.221,1.484-.41-.437-.839-.867T171.95,368.27Zm1.277-.857c-.836-.133-1.7-.236-2.582-.307-.679-.577-1.365-1.115-2.053-1.612a22.021,22.021,0,0,1,3.491-1.88A22.587,22.587,0,0,1,173.227,367.413ZM167.7,359.1c1.5,0,2.887,1.364,3.974,3.6a23.907,23.907,0,0,0-3.974,2.18,23.905,23.905,0,0,0-3.974-2.18C164.811,360.46,166.2,359.1,167.7,359.1Zm-4.385,4.518a22.048,22.048,0,0,1,3.491,1.88c-.687.5-1.374,1.035-2.054,1.612-.882.071-1.745.174-2.581.307A22.472,22.472,0,0,1,163.314,363.614ZM157,363.529a3.282,3.282,0,0,1,2.414-.834,9.289,9.289,0,0,1,2.94.555,23.634,23.634,0,0,0-1.274,4.359,23.593,23.593,0,0,0-4.348,1.27C155.922,366.533,155.942,364.585,157,363.529Zm3.48,11.906q-.47-.6-.893-1.206.423-.6.893-1.206-.02.6-.019,1.206T160.479,375.434Zm.1,1.744c.071.882.174,1.744.307,2.579a22.627,22.627,0,0,1-3.786-1.138,22.618,22.618,0,0,1,1.872-3.482C159.467,375.822,160,376.5,160.577,377.178Zm0-5.9c-.573.674-1.11,1.356-1.606,2.04a22.582,22.582,0,0,1-1.872-3.481,22.565,22.565,0,0,1,3.786-1.137C160.75,369.535,160.648,370.4,160.577,371.278Zm-8.01,2.95c0-1.494,1.362-2.886,3.593-3.972a23.642,23.642,0,0,0,2.177,3.972,23.62,23.62,0,0,0-2.177,3.972C153.929,377.114,152.567,375.722,152.567,374.228Zm6.846,11.534a3.281,3.281,0,0,1-2.414-.834c-1.057-1.057-1.077-3-.268-5.349a23.6,23.6,0,0,0,4.348,1.27,23.635,23.635,0,0,0,1.274,4.359A9.289,9.289,0,0,1,159.413,385.762Zm2.757-4.719c.836.133,1.7.236,2.581.307.679.577,1.366,1.115,2.054,1.612a22.108,22.108,0,0,1-3.491,1.881A22.5,22.5,0,0,1,162.17,381.043Zm5.528,8.317c-1.495,0-2.887-1.364-3.974-3.6a23.908,23.908,0,0,0,3.974-2.18,23.91,23.91,0,0,0,3.974,2.18C170.586,388,169.194,389.36,167.7,389.36Zm4.385-4.518a22.026,22.026,0,0,1-3.491-1.88c.687-.5,1.374-1.035,2.053-1.612.882-.071,1.745-.174,2.582-.307A22.587,22.587,0,0,1,172.084,384.842Zm6.314.086a3.281,3.281,0,0,1-2.413.834,9.292,9.292,0,0,1-2.94-.555,23.632,23.632,0,0,0,1.275-4.359,23.581,23.581,0,0,0,4.351-1.271C179.495,381.995,179.4,383.922,178.4,384.928Zm.839-6.727a23.646,23.646,0,0,0-2.177-3.972,23.665,23.665,0,0,0,2.177-3.972c2.23,1.086,3.593,2.478,3.593,3.972S181.468,377.114,179.237,378.2Z" transform="translate(-151.547 -358.076)" fill="#fff"/>
      </g>
    </g>
  </g>
</svg>
