<svg xmlns="http://www.w3.org/2000/svg" width="34.662" height="33.331" viewBox="0 0 34.662 33.331">
  <g id="Group_19" data-name="Group 19" transform="translate(0)">
    <g id="Group_18" data-name="Group 18" transform="translate(0 0)">
      <g id="Group_17" data-name="Group 17">
        <path id="Path_15" data-name="Path 15" d="M374.713,365.747a2.825,2.825,0,1,0,2.825,2.824A2.827,2.827,0,0,0,374.713,365.747Zm0,4.552a1.727,1.727,0,1,1,1.728-1.727A1.73,1.73,0,0,1,374.713,370.3Z" transform="translate(-357.221 -357.896)" fill="#fff"/>
        <path id="Path_16" data-name="Path 16" d="M381.813,377.87v-8.1a.549.549,0,0,0-.162-.389l-5.273-5.24v-1.157a9.889,9.889,0,0,0-5.552-8.888.553.553,0,0,0-.482,0,9.888,9.888,0,0,0-5.552,8.888v1.157l-5.273,5.24a.546.546,0,0,0-.162.389v8.1a.549.549,0,0,0,.549.549h4.886v.021a1.939,1.939,0,0,0,1.937,1.937h.815a5.037,5.037,0,0,0-.492,2.181,5.1,5.1,0,0,0,3.345,4.777.551.551,0,0,0,.375,0,5.1,5.1,0,0,0,3.345-4.777,5.037,5.037,0,0,0-.492-2.181h.815a1.939,1.939,0,0,0,1.937-1.937v-.021h4.886A.549.549,0,0,0,381.813,377.87Zm-17.02-1.543v.994h-4.338V370l4.338-4.311Zm1.937,2.954a.841.841,0,0,1-.84-.84v-1.565h4.147v2.405Zm3.855,6.95a4,4,0,0,1-2.435-3.672,3.942,3.942,0,0,1,.634-2.153h1.253v1.013a.549.549,0,1,0,1.1,0v-1.013h1.253a3.942,3.942,0,0,1,.634,2.153A4,4,0,0,1,370.585,386.231Zm4.7-7.791h0a.841.841,0,0,1-.84.84h-3.307v-2.405h4.147Zm5.435-1.119h-4.338v-4.377a.549.549,0,0,0-1.1,0v2.834h-4.146v-1.458a.549.549,0,0,0-1.1,0v1.458H365.89v-12.8a8.735,8.735,0,0,1,4.7-7.78,8.734,8.734,0,0,1,4.7,7.78v8.1a.549.549,0,0,0,1.1,0v-5.393L380.716,370v7.324Z" transform="translate(-353.093 -354.039)" fill="#fff"/>
        <path id="Path_17" data-name="Path 17" d="M391.6,394a4.638,4.638,0,0,0-1.788.358,2.409,2.409,0,0,0-4.707.722.549.549,0,1,0,1.1,0,1.311,1.311,0,1,1,2.313.846.549.549,0,0,0,.837.709,2.412,2.412,0,0,0,.523-1.09,3.536,3.536,0,0,1,5.26,3.088.549.549,0,0,0,1.1,0A4.64,4.64,0,0,0,391.6,394Z" transform="translate(-361.577 -366.766)" fill="#fff"/>
        <path id="Path_18" data-name="Path 18" d="M360.523,396.928a2.743,2.743,0,0,0-.638.075.547.547,0,0,0,.044-.459,3.036,3.036,0,0,0-5.286-.828,3.683,3.683,0,0,0-4.628,3.558.549.549,0,1,0,1.1,0,2.584,2.584,0,0,1,4.773-1.373.549.549,0,1,0,.929-.585,3.694,3.694,0,0,0-1.122-1.138,1.94,1.94,0,0,1,3.2.729.546.546,0,0,0,.343.338,2.776,2.776,0,0,0-1.486,2.455.549.549,0,1,0,1.1,0,1.675,1.675,0,0,1,3.351,0,.549.549,0,1,0,1.1,0A2.777,2.777,0,0,0,360.523,396.928Z" transform="translate(-350.015 -367.372)" fill="#fff"/>
      </g>
    </g>
  </g>
</svg>
