<svg xmlns="http://www.w3.org/2000/svg" width="23" height="23" viewBox="0 0 23 23">
  <g id="Group_4617" data-name="Group 4617" transform="translate(-590 -2057)">
    <rect id="Rectangle_14696" data-name="Rectangle 14696" width="23" height="23" rx="6" transform="translate(590 2057)" fill="#4caf50"/>
    <path id="Path_55547" data-name="Path 55547" d="M-824.912,834.267v-.916c.034-.011.026-.042.03-.067.03-.168.051-.337.091-.5a5.417,5.417,0,0,1,2.2-3.155,7.458,7.458,0,0,1,3.632-1.371,8.062,8.062,0,0,1,4.049.549,6.216,6.216,0,0,1,3.079,2.544,4.557,4.557,0,0,1,.276,4.427,6.477,6.477,0,0,1-1.358,1.86,19.762,19.762,0,0,1-2.95,2.381,16.9,16.9,0,0,1-2.078,1.265,1.029,1.029,0,0,1-.422.125c-.175.005-.263-.071-.265-.246a2.062,2.062,0,0,1,.034-.307,4.686,4.686,0,0,0,.1-.935.445.445,0,0,0-.263-.405,1.869,1.869,0,0,0-.554-.158,7.3,7.3,0,0,1-3.638-1.592,5.237,5.237,0,0,1-1.891-3.136A1.266,1.266,0,0,0-824.912,834.267Zm6.873-.62c.041.054.074.1.105.139l1.247,1.7a.371.371,0,0,0,.443.167.377.377,0,0,0,.245-.392q0-1.325,0-2.651a.374.374,0,0,0-.357-.42c-.222,0-.367.162-.368.42q0,.74,0,1.48v.136a.239.239,0,0,1-.1-.105q-.619-.839-1.235-1.679c-.164-.223-.293-.289-.463-.235-.188.06-.255.185-.255.476q0,1.191,0,2.381c0,.1,0,.2.007.3a.345.345,0,0,0,.308.307.351.351,0,0,0,.385-.247.777.777,0,0,0,.018-.2c0-.471,0-.942,0-1.413A.3.3,0,0,1-818.039,833.646Zm3.569,2.027h.687a.359.359,0,0,0,.358-.361.366.366,0,0,0-.4-.365q-.431-.006-.862,0c-.081,0-.112-.02-.108-.105.006-.143.008-.287,0-.43-.005-.1.035-.119.125-.117.274.005.547,0,.821,0a.521.521,0,0,0,.173-.018.36.36,0,0,0,.245-.388.354.354,0,0,0-.356-.321c-.3-.006-.6,0-.9,0-.083,0-.11-.023-.106-.106a4.273,4.273,0,0,0,0-.43c-.006-.1.033-.118.123-.116.287.005.574,0,.862,0a.363.363,0,0,0,.384-.364.362.362,0,0,0-.385-.362q-.66,0-1.319,0a.358.358,0,0,0-.385.388q0,1.353,0,2.706a.355.355,0,0,0,.384.387C-814.909,835.676-814.689,835.674-814.469,835.674Zm-7.98-1.73q0,.249,0,.5c0,.278,0,.556,0,.834a.354.354,0,0,0,.35.4q.7.009,1.4,0a.346.346,0,0,0,.342-.345.365.365,0,0,0-.4-.378c-.282,0-.565-.006-.847,0-.1,0-.128-.031-.127-.13,0-.466,0-.933,0-1.4,0-.3,0-.592,0-.888a.348.348,0,0,0-.335-.339.356.356,0,0,0-.375.312,1.113,1.113,0,0,0-.009.161Q-822.451,833.3-822.45,833.944Zm3.149,0h0c0-.462,0-.925,0-1.387a.354.354,0,0,0-.3-.358.364.364,0,0,0-.393.239.654.654,0,0,0-.021.213q0,1.286,0,2.572a1.115,1.115,0,0,0,.007.148.35.35,0,0,0,.34.305.355.355,0,0,0,.372-.386C-819.3,834.837-819.3,834.389-819.3,833.94Z" transform="translate(1419.332 1233.751)" fill="#fff"/>
  </g>
</svg>
