<svg xmlns="http://www.w3.org/2000/svg" width="51.786" height="50.227" viewBox="0 0 51.786 50.227">
  <g id="Group_27738" data-name="Group 27738" transform="translate(-229.997 -227.89)">
    <path id="Path_55771" data-name="Path 55771" d="M244,257.169l2.111,2.111a3.321,3.321,0,0,0,4.7-.013h0a3.31,3.31,0,0,0-.008-4.681" transform="translate(8.572 16.868)" fill="none" stroke="#fff" stroke-miterlimit="10" stroke-width="2"/>
    <path id="Path_55772" data-name="Path 55772" d="M249.5,259.714l-.169-.166,4.86,4.86a3.321,3.321,0,0,0,4.7-.013l.06-.058a3.221,3.221,0,0,0,0-4.555l-12.977-12.974" transform="translate(9.877 11.74)" fill="none" stroke="#fff" stroke-miterlimit="10" stroke-width="2"/>
    <path id="Path_55773" data-name="Path 55773" d="M245.979,248.673s10.458,10.457,15.245,15.254a3.324,3.324,0,0,0,4.712-.013l.06-.06a3.231,3.231,0,0,0,0-4.57l-15.322-15.3" transform="translate(9.877 9.875)" fill="none" stroke="#fff" stroke-miterlimit="10" stroke-width="2"/>
    <path id="Path_55778" data-name="Path 55778" d="M235.365,253.989l-.1-.1a14.58,14.58,0,0,1,20.392-20.84,2.748,2.748,0,0,1,.232.216c.183-.183.365-.348.548-.514a14.55,14.55,0,0,1,5.608-3.153h.033a14.577,14.577,0,0,1,14.436,24.291l-3.269,3.269" fill="none" stroke="#f8a51b" stroke-miterlimit="10" stroke-width="2" stroke-dasharray="38 2 2 2 2 2"/>
    <path id="Path_55770" data-name="Path 55770" d="M255.413,252.535l12.906,12.906a3.318,3.318,0,0,0,4.692,0h0a3.319,3.319,0,0,0,0-4.692l-20.6-20.606-7.825,2.784a4.341,4.341,0,0,1-5.422-2.328h0a4.342,4.342,0,0,1,2.026-5.646l7.9-3.952" transform="translate(5.137 1.319)" fill="none" stroke="#fff" stroke-miterlimit="10" stroke-width="2"/>
  </g>
</svg>
