<svg xmlns="http://www.w3.org/2000/svg" width="56.933" height="51" viewBox="0 0 56.933 51">
  <g id="Group_27741" data-name="Group 27741" transform="translate(-208 -53)">
    <path id="Path_55781" data-name="Path 55781" d="M223.091,74h0c-3.039,0-9.85,1.339-10.82,4.694C211.827,80.231,210,90.66,210,90.66h26.181s-1.827-10.43-2.271-11.964C232.931,75.307,226.105,74,223.091,74Z" transform="translate(0.38 3.802)" fill="none" stroke="#f8a51b" stroke-miterlimit="10" stroke-width="2"/>
    <path id="Path_55782" data-name="Path 55782" d="M229.233,89.52l.048-9.52H215l.048,9.52Z" transform="translate(1.33 4.942)" fill="none" stroke="#f8a51b" stroke-miterlimit="10" stroke-width="2"/>
    <line id="Line_3030" data-name="Line 3030" x2="37" transform="translate(208 95)" fill="none" stroke="#f8a51b" stroke-miterlimit="10" stroke-width="2"/>
    <path id="Path_55783" data-name="Path 55783" d="M246.76,65.9A4.877,4.877,0,0,1,242,60.8V59.1a4.772,4.772,0,1,1,9.521,0v1.7A4.877,4.877,0,0,1,246.76,65.9Z" transform="translate(6.462)" fill="none" stroke="#fff" stroke-miterlimit="10" stroke-width="2"/>
    <path id="Path_55784" data-name="Path 55784" d="M243.057,101.512V75.33s-3.868,2.38-4.76,2.38-2.77-.826-4.76-2.38a36.274,36.274,0,0,1-2.832-2.459,1.716,1.716,0,0,1,1.805-2.831c1.86.7,3.736,1.4,4.6,1.72,1.785-1.859,3.644-4.76,8.33-4.76h8.33c4.264,0,5.95,1.8,5.95,7.14v7.14c0,2.553-1.017,3.57-3.57,3.57h-1.19" transform="translate(4.215 2.471)" fill="none" stroke="#fff" stroke-miterlimit="10" stroke-width="2"/>
    <line id="Line_3031" data-name="Line 3031" y2="16" transform="translate(253 88)" fill="none" stroke="#fff" stroke-miterlimit="10" stroke-width="2"/>
    <line id="Line_3032" data-name="Line 3032" y2="28" transform="translate(259 76)" fill="none" stroke="#fff" stroke-miterlimit="10" stroke-width="2"/>
    <path id="Path_55785" data-name="Path 55785" d="M221.76,72.9A4.877,4.877,0,0,1,217,67.8V66.1a4.772,4.772,0,1,1,9.52,0v1.7A4.877,4.877,0,0,1,221.76,72.9Z" transform="translate(1.711 1.33)" fill="none" stroke="#f8a51b" stroke-miterlimit="10" stroke-width="2"/>
  </g>
</svg>
