<svg id="adjust-panel-customize-tune" xmlns="http://www.w3.org/2000/svg" width="16" height="16" viewBox="0 0 16 16">
  <path id="Path_84" data-name="Path 84" d="M7.5,0A2.5,2.5,0,0,0,5.05,2H0V3H5.05a2.5,2.5,0,0,0,4.9,0H16V2H9.95A2.5,2.5,0,0,0,7.5,0Z" fill="#fba51a"/>
  <path id="Path_85" data-name="Path 85" d="M12.5,6a2.5,2.5,0,0,0-2.45,2H0V9H10.05a2.5,2.5,0,0,0,4.9,0H16V8H14.95A2.5,2.5,0,0,0,12.5,6Z" fill="#fba51a"/>
  <path id="Path_86" data-name="Path 86" d="M5.5,11a2.5,2.5,0,0,0-2.45,2H0v1H3.05a2.5,2.5,0,0,0,4.9,0H16V13H7.95A2.5,2.5,0,0,0,5.5,11Z" fill="#fba51a"/>
</svg>
