<svg xmlns="http://www.w3.org/2000/svg" width="21.551" height="21.551" viewBox="0 0 21.551 21.551">
  <g id="adjust-panel-customize-tune" transform="translate(0 21.551) rotate(-90)">
    <path id="Path_84" data-name="Path 84" d="M10.1,0A3.37,3.37,0,0,0,6.8,2.694H0V4.041H6.8a3.368,3.368,0,0,0,6.6,0h8.149V2.694H13.4A3.37,3.37,0,0,0,10.1,0Z" fill="#fba51a"/>
    <path id="Path_85" data-name="Path 85" d="M16.837,6a3.37,3.37,0,0,0-3.3,2.694H0v1.347H13.537a3.368,3.368,0,0,0,6.6,0h1.414V8.694H20.137A3.37,3.37,0,0,0,16.837,6Z" transform="translate(0 2.082)" fill="#fba51a"/>
    <path id="Path_86" data-name="Path 86" d="M7.408,11a3.37,3.37,0,0,0-3.3,2.694H0v1.347H4.108a3.368,3.368,0,0,0,6.6,0H21.551V13.694H10.708A3.37,3.37,0,0,0,7.408,11Z" transform="translate(0 3.816)" fill="#fba51a"/>
  </g>
</svg>
