<svg id="Group_132" data-name="Group 132" xmlns="http://www.w3.org/2000/svg" width="40.219" height="39.406" viewBox="0 0 40.219 39.406">
  <path id="Path_6" data-name="Path 6" d="M8.231,0H31.988a8.174,8.174,0,0,1,8.231,8.064V31.342a8.174,8.174,0,0,1-8.231,8.064H8.231A8.172,8.172,0,0,1,0,31.338V8.064A8.174,8.174,0,0,1,8.231,0Z" fill="#3ace01" fill-rule="evenodd"/>
  <path id="Path_7" data-name="Path 7" d="M64.666,62.576c8.148,0,14.758,5.134,14.758,11.466a9.622,9.622,0,0,1-2.2,6.028,2.989,2.989,0,0,1-.274.332v.009a12.614,12.614,0,0,1-1.605,1.555c-4.08,3.668-10.8,8.018-11.683,7.346-.77-.585,1.269-3.443-1.08-3.918-.164-.019-.328-.038-.49-.059h0c-6.911-.952-12.16-5.646-12.16-11.29,0-6.332,6.605-11.466,14.758-11.466Z" transform="translate(-44.598 -55.915)" fill="#fff" fill-rule="evenodd"/>
  <path id="Path_8" data-name="Path 8" d="M101.642,148.133h2.975a.772.772,0,0,0,.769-.77V147.3a.772.772,0,0,0-.769-.769h-2.142v-4.874a.772.772,0,0,0-.769-.769h-.065a.772.772,0,0,0-.769.769v5.707A.772.772,0,0,0,101.642,148.133Zm18.439-3.58v-.065a.772.772,0,0,0-.77-.769h-2.142V142.5h2.142a.772.772,0,0,0,.77-.769v-.065a.772.772,0,0,0-.77-.769h-2.975a.772.772,0,0,0-.769.769v5.707a.772.772,0,0,0,.769.77h2.975a.772.772,0,0,0,.77-.77v-.065a.772.772,0,0,0-.77-.769h-2.142v-1.218h2.142a.772.772,0,0,0,.77-.769Zm-5.723,3.348h0a.767.767,0,0,0,.223-.54v-5.705a.772.772,0,0,0-.77-.769h-.065a.772.772,0,0,0-.769.769V145l-2.781-3.731a.77.77,0,0,0-.668-.389h-.065a.772.772,0,0,0-.77.769v5.707a.772.772,0,0,0,.77.77h.065a.772.772,0,0,0,.769-.77v-3.42l2.8,3.826a.789.789,0,0,0,.056.077h0a.646.646,0,0,0,.3.221.762.762,0,0,0,.292.058h.065a.763.763,0,0,0,.36-.09.54.54,0,0,0,.18-.14Zm-7.581.229h.065a.772.772,0,0,0,.769-.77v-5.705a.772.772,0,0,0-.769-.768h-.065a.772.772,0,0,0-.77.769v5.707a.772.772,0,0,0,.77.77Z" transform="translate(-90.139 -126.259)" fill="#3ace01" fill-rule="evenodd"/>
</svg>
