<svg id="Group_131" data-name="Group 131" xmlns="http://www.w3.org/2000/svg" width="39.574" height="40" viewBox="0 0 39.574 40">
  <ellipse id="Ellipse_1" data-name="Ellipse 1" cx="19.787" cy="20" rx="19.787" ry="20" transform="translate(0)" fill="#2daae1"/>
  <path id="Path_6" data-name="Path 6" d="M257.9,145.706a10.9,10.9,0,0,1-3.038.8,5.141,5.141,0,0,0,2.325-2.813,10.831,10.831,0,0,1-3.36,1.234,5.442,5.442,0,0,0-5.805-1.249,5.093,5.093,0,0,0-3.345,4.729,4.951,4.951,0,0,0,.137,1.159,15.231,15.231,0,0,1-10.9-5.313,4.972,4.972,0,0,0,1.636,6.789,5.429,5.429,0,0,1-2.4-.635v.064a5.141,5.141,0,0,0,4.244,4.986,5.464,5.464,0,0,1-1.393.173,5.582,5.582,0,0,1-1-.09,5.276,5.276,0,0,0,4.94,3.531,10.962,10.962,0,0,1-7.831,2.105,15.564,15.564,0,0,0,15.338.511A14.384,14.384,0,0,0,255.276,149q0-.33-.016-.657A10.556,10.556,0,0,0,257.9,145.706Z" transform="translate(-225.203 -133.693)" fill="#fff"/>
</svg>
