<svg id="Group_130" data-name="Group 130" xmlns="http://www.w3.org/2000/svg" width="40.219" height="39.405" viewBox="0 0 40.219 39.405">
  <path id="Path_3" data-name="Path 3" d="M7.9,27.6A19.907,19.907,0,0,1,28.007,7.9,19.908,19.908,0,0,1,48.115,27.6,19.908,19.908,0,0,1,28.008,47.3,19.91,19.91,0,0,1,7.9,27.6Z" transform="translate(-7.9 -7.901)" fill="#d42428"/>
  <path id="Path_4" data-name="Path 4" d="M109.037,80.6a19.305,19.305,0,0,1,0,27.764,20.454,20.454,0,0,1-28.437,0Z" transform="translate(-74.707 -74.709)" fill="#cc202d"/>
  <path id="Path_5" data-name="Path 5" d="M179.5,116.488,165.97,102.961l-1.094,1.094-1.094-1.094-1.2,1.2.8.8-.259.259-2.082-2.082-.09.09-2.8-2.8-1.2,1.2.324.324-.479.479-2.027-2.027-.842.842,1.969,4.75-.9,3.646,2.432,2.432-6.143.43-.09,10.666,9.888,9.9A20.147,20.147,0,0,0,179.5,116.488Z" transform="translate(-139.59 -93.718)" fill="#ba202e"/>
  <path id="YouTube_2_" d="M155.946,117.678h-1.3v-.754a.612.612,0,0,1,.608-.608h.081a.619.619,0,0,1,.616.608Zm-4.859-1.62a.558.558,0,0,0-.6.495v3.663a.61.61,0,0,0,1.2,0v-3.663a.552.552,0,0,0-.6-.495Zm7.9-2.05v6.971a3.144,3.144,0,0,1-3.218,3.04H142.519a3.139,3.139,0,0,1-3.218-3.04v-6.971a3.144,3.144,0,0,1,3.218-3.04h13.243a3.151,3.151,0,0,1,3.223,3.04ZM143.4,121.731V114.4h1.645v-1.08h-4.377v1.069h1.37v7.359H143.4Zm4.928-6.24h-1.37v3.915a7.97,7.97,0,0,1,0,.949c-.113.3-.616.625-.81.032a8.34,8.34,0,0,1,0-.956v-3.947h-1.362v3.882c0,.592-.016,1.037,0,1.24.032.36.025.77.349,1a1.65,1.65,0,0,0,2.091-.7v.81h1.1Zm4.377,4.482v-3.258c0-1.24-.932-1.98-2.2-.981v-2.423h-1.37v8.373l1.127-.016.106-.518c1.44,1.314,2.34.4,2.34-1.175Zm4.28-.43h-1.03v.72a.56.56,0,0,1-.56.56h-.2a.56.56,0,0,1-.56-.56v-1.5h2.351v-.884a13.212,13.212,0,0,0-.074-1.661c-.171-1.166-1.8-1.353-2.635-.754a1.546,1.546,0,0,0-.576.77,4.435,4.435,0,0,0-.171,1.379v1.946c0,3.232,3.924,2.77,3.454-.011Zm-5.261-10.561a.968.968,0,0,0,1.418.4,1.206,1.206,0,0,0,.382-.495l-.025.54h1.524v-6.479h-1.2V108a.5.5,0,0,1-.5.495.5.5,0,0,1-.5-.495v-5.048h-1.26v4.377q0,.839.025,1.118a1.979,1.979,0,0,0,.13.536Zm-4.627-3.663a5.293,5.293,0,0,1,.155-1.46,1.654,1.654,0,0,1,.56-.842,1.633,1.633,0,0,1,1.037-.317,1.949,1.949,0,0,1,.9.2,1.555,1.555,0,0,1,.583.54,2.1,2.1,0,0,1,.284.673,5.635,5.635,0,0,1,.074,1.062v1.645a8.7,8.7,0,0,1-.074,1.33,2.112,2.112,0,0,1-.3.786,1.461,1.461,0,0,1-.592.54,1.933,1.933,0,0,1-.826.171,2.371,2.371,0,0,1-.884-.146,1.188,1.188,0,0,1-.56-.446,1.962,1.962,0,0,1-.284-.729,7.183,7.183,0,0,1-.081-1.281Zm1.2,2.577a.61.61,0,1,0,1.215,0v-3.452a.61.61,0,1,0-1.215,0Zm-4.222,1.751h1.44v-4.976l1.7-4.264h-1.573l-.9,3.169-.916-3.177h-1.557l1.8,4.271Z" transform="translate(-128.65 -93.272)" fill="#fff"/>
</svg>
