<svg xmlns="http://www.w3.org/2000/svg" width="30" height="30" viewBox="0 0 30 30">
  <g id="Group_27270" data-name="Group 27270" transform="translate(-723 -1821)">
    <circle id="Ellipse_713" data-name="Ellipse 713" cx="15" cy="15" r="15" transform="translate(723 1821)" fill="#fba51a"/>
    <path id="ic_call_24px" d="M5.55,9.676a12.091,12.091,0,0,0,4.643,5.647l1.55-1.885a.615.615,0,0,1,.719-.206,6.746,6.746,0,0,0,2.515.488.794.794,0,0,1,.7.857v2.991a.794.794,0,0,1-.7.857C8.362,18.425,3,11.9,3,3.857A.794.794,0,0,1,3.7,3H6.17a.794.794,0,0,1,.7.857,11.673,11.673,0,0,0,.4,3.059A1,1,0,0,1,7.1,7.79Z" transform="translate(728.659 1825.287)" fill="#fff"/>
  </g>
</svg>
